<?xml version="1.0" encoding="UTF-8"?>
<svg version="1.1" xmlns="http://www.w3.org/2000/svg" width="426" height="426">
<path d="M0 0 C2.35249492 -0.00435576 4.70498842 -0.00954176 7.05747986 -0.01548767 C13.40486359 -0.02879733 19.75218748 -0.02946524 26.09958243 -0.02692437 C32.09503351 -0.02571243 38.09047644 -0.03194983 44.08592425 -0.03735783 C56.68996802 -0.0481975 69.29398494 -0.04608814 81.8980302 -0.03997298 C93.3803441 -0.03480938 104.86257301 -0.04605097 116.34487011 -0.0650712 C128.18688599 -0.08453409 140.02886183 -0.09269074 151.87089378 -0.08894795 C158.49838788 -0.08704835 165.1258189 -0.08967263 171.75330162 -0.10366249 C177.99235317 -0.11634131 184.23123612 -0.11420267 190.47028542 -0.1012516 C192.74324732 -0.09890784 195.01622148 -0.10154015 197.28916931 -0.10987473 C228.04085155 -0.21439224 256.78936138 3.83231303 280.30200195 25.2746582 C281.0805957 25.96043945 281.85918945 26.6462207 282.66137695 27.3527832 C301.11860363 44.53709769 309.32445104 70.19302927 310.41557336 94.84009147 C310.60600779 101.88326897 310.58534438 108.92748139 310.57666016 115.97265625 C310.58101591 118.32515117 310.58620192 120.67764467 310.59214783 123.03013611 C310.60545749 129.37751984 310.60612539 135.72484373 310.60358453 142.07223868 C310.60237259 148.06768976 310.60860998 154.06313269 310.61401799 160.0585805 C310.62485765 172.66262427 310.62274829 185.26664119 310.61663314 197.87068645 C310.61146953 209.35300035 310.62271112 220.83522926 310.64173136 232.31752636 C310.66119424 244.15954224 310.66935089 256.00151808 310.66560811 267.84355003 C310.66370851 274.47104413 310.66633278 281.09847515 310.68032265 287.72595787 C310.69300147 293.96500942 310.69086282 300.20389237 310.67791176 306.44294167 C310.675568 308.71590357 310.67820031 310.98887773 310.68653488 313.26182556 C310.78812147 343.15115651 307.13484268 372.25516434 286.30200195 395.2746582 C285.6265332 396.03133789 284.95106445 396.78801758 284.25512695 397.56762695 C266.34514115 416.55613379 241.41363888 425.24925417 215.73601937 426.38850427 C208.69303599 426.57885777 201.64898278 426.55800039 194.60400391 426.54931641 C192.25150899 426.55367216 189.89901548 426.55885817 187.54652405 426.56480408 C181.19914032 426.57811374 174.85181642 426.57878164 168.50442147 426.57624078 C162.50897039 426.57502884 156.51352746 426.58126623 150.51807966 426.58667424 C137.91403589 426.5975139 125.31001896 426.59540454 112.70597371 426.58928939 C101.22365981 426.58412578 89.74143089 426.59536737 78.25913379 426.61438761 C66.41711792 426.63385049 54.57514207 426.64200714 42.73311013 426.63826436 C36.10561602 426.63636476 29.47818501 426.63898903 22.85070229 426.6529789 C16.61165074 426.66565772 10.37276779 426.66351907 4.13371849 426.65056801 C1.86075658 426.64822425 -0.41221757 426.65085656 -2.68516541 426.65919113 C-33.43684765 426.76370864 -62.18535748 422.71700338 -85.69799805 401.2746582 C-86.86588867 400.24598633 -86.86588867 400.24598633 -88.05737305 399.1965332 C-106.51459972 382.01221871 -114.72044713 356.35628714 -115.81156945 331.70922494 C-116.00200388 324.66604744 -115.98134047 317.62183502 -115.97265625 310.57666016 C-115.97701201 308.22416524 -115.98219801 305.87167173 -115.98814392 303.5191803 C-116.00145358 297.17179657 -116.00212149 290.82447267 -115.99958062 284.47707772 C-115.99836868 278.48162664 -116.00460608 272.48618371 -116.01001408 266.49073591 C-116.02085375 253.88669214 -116.01874439 241.28267521 -116.01262923 228.67862996 C-116.00746563 217.19631606 -116.01870722 205.71408714 -116.03772745 194.23179004 C-116.05719034 182.38977417 -116.06534699 170.54779832 -116.0616042 158.70576638 C-116.0597046 152.07827227 -116.06232888 145.45084126 -116.07631874 138.82335854 C-116.08899756 132.58430699 -116.08685892 126.34542404 -116.07390785 120.10637474 C-116.07156409 117.83341283 -116.0741964 115.56043868 -116.08253098 113.28749084 C-116.18411756 83.3981599 -112.53083878 54.29415206 -91.69799805 31.2746582 C-91.0225293 30.51797852 -90.34706055 29.76129883 -89.65112305 28.98168945 C-65.62622761 3.51003937 -33.17920036 -0.04089828 0 0 Z " fill="#D7D5CB" transform="translate(115.697998046875,-0.274658203125)"/>
<path d="M0 0 C24.01059906 19.81140419 38.22496162 44.78476269 45 75 C45.18030762 75.75659912 45.36061523 76.51319824 45.54638672 77.29272461 C46.47292534 82.82253447 46.22589574 88.48393803 46.24023438 94.07958984 C46.24982302 96.33340054 46.280822 98.58625126 46.3125 100.83984375 C46.40947528 113.87773164 44.57770729 126.12280992 39.875 138.375 C39.5756958 139.16535645 39.2763916 139.95571289 38.96801758 140.77001953 C33.57472506 154.58026308 26.47763433 166.62288155 17 178 C13.59057754 176.86352585 13.32297284 176.31354962 11.4375 173.4375 C4.24479389 163.59577286 -6.29466232 158.2298207 -17 153 C-17.81855469 152.59910156 -18.63710937 152.19820312 -19.48046875 151.78515625 C-54.28576173 136.44618642 -98.36542412 138.37725731 -133.31396484 151.89501953 C-147.25057032 157.57624108 -159.52874364 165.24690861 -168 178 C-172.20837227 176.47494767 -174.27664434 173.4109897 -176.75 169.875 C-177.18538086 169.25608887 -177.62076172 168.63717773 -178.06933594 167.99951172 C-182.83379702 161.04075354 -186.58266695 153.69649351 -190 146 C-190.28359375 145.36900391 -190.5671875 144.73800781 -190.859375 144.08789062 C-203.18893359 116.02651317 -203.35679322 82.9000974 -192.72265625 54.27734375 C-186.06542112 37.35990877 -176.54438728 23.13947207 -164 10 C-163.47535156 9.4121875 -162.95070312 8.824375 -162.41015625 8.21875 C-120.92537388 -36.5383689 -46.27368394 -36.66417758 0 0 Z " fill="#D7D5CB" transform="translate(263,116)"/>
<path d="M0 0 C0.76007858 -0.00992981 1.52015717 -0.01985962 2.30326843 -0.03009033 C43.45679551 -0.4571634 77.20278734 11.34977319 107.265625 40.23828125 C126.77441135 60.56265231 138.89320629 85.62542532 143.890625 113.23828125 C144.15431885 114.65584717 144.15431885 114.65584717 144.42333984 116.10205078 C149.43775991 149.7568262 139.47621125 186.19870778 119.515625 213.55078125 C97.0184372 242.11242837 65.57135159 263.43273665 28.890625 268.23828125 C23.50672965 268.66969814 18.11790907 268.67252054 12.7199707 268.62939453 C10.32640853 268.61326969 7.93452809 268.62936569 5.54101562 268.6484375 C-4.09811454 268.66140024 -12.74893979 267.70341306 -22.109375 265.23828125 C-22.83084717 265.06522461 -23.55231934 264.89216797 -24.2956543 264.71386719 C-33.07240831 262.58835016 -41.06718886 259.29841406 -49.109375 255.23828125 C-50.1921875 254.70203125 -51.275 254.16578125 -52.390625 253.61328125 C-64.31372257 247.4814025 -74.39090745 239.4113246 -84.109375 230.23828125 C-84.78484375 229.61566406 -85.4603125 228.99304688 -86.15625 228.3515625 C-110.87879636 204.76625327 -123.76170073 170.73322227 -124.57788086 137.02050781 C-124.87682309 99.93313156 -111.75791052 67.02979964 -86.109375 40.23828125 C-85.43777344 39.50351563 -84.76617187 38.76875 -84.07421875 38.01171875 C-63.09270046 15.81444893 -30.6628914 0.32659957 0 0 Z M-82.71435547 52.62744141 C-86.94889831 57.51710078 -90.58104977 62.82712776 -94.109375 68.23828125 C-94.74617188 69.2025 -95.38296875 70.16671875 -96.0390625 71.16015625 C-106.05546929 87.27544185 -112.43873341 107.21888564 -113.109375 126.23828125 C-113.14047363 126.86686035 -113.17157227 127.49543945 -113.20361328 128.14306641 C-114.61855994 159.39276773 -104.36860005 187.05740645 -86.1875 212.10546875 C-85.50171875 212.80929687 -84.8159375 213.513125 -84.109375 214.23828125 C-82.789375 214.23828125 -81.469375 214.23828125 -80.109375 214.23828125 C-78.66394829 212.75736102 -78.66394829 212.75736102 -77.484375 210.73828125 C-64.03167681 191.83807071 -37.52082774 184.59850481 -15.8203125 180.78125 C3.98782581 177.88300661 24.29470964 178.03556335 43.890625 182.23828125 C44.56947754 182.37218262 45.24833008 182.50608398 45.94775391 182.64404297 C65.24927658 186.48386843 89.0743947 195.82932888 100.453125 212.73828125 C100.9275 213.56328125 101.401875 214.38828125 101.890625 215.23828125 C106.40259288 213.71325714 108.52522804 210.06921451 111.078125 206.30078125 C111.55717285 205.59566406 112.0362207 204.89054688 112.52978516 204.1640625 C126.50759239 182.9774292 133.33410978 159.94666549 133.265625 134.67578125 C133.26508118 133.92194153 133.26453735 133.16810181 133.26397705 132.39141846 C133.22591258 120.92061458 132.56326115 110.17513456 128.890625 99.23828125 C128.67631836 98.56780762 128.46201172 97.89733398 128.24121094 97.20654297 C118.1123861 66.01654451 96.16486114 39.67453572 67.15380859 24.36083984 C15.98792218 -1.01788138 -44.37635217 10.62816538 -82.71435547 52.62744141 Z " fill="#A9A29A" transform="translate(176.109375,78.76171875)"/>
<path d="M0 0 C11.77470957 3.92490319 20.3135543 11.43835955 29 20 C29.6703125 20.65742188 30.340625 21.31484375 31.03125 21.9921875 C48.53820434 40.53364369 54.1642445 67.57577576 54.14044189 92.24848938 C54.14341302 93.23043642 54.14638414 94.21238346 54.1494453 95.22408646 C54.15806155 98.48834839 54.15963453 101.75257334 54.16113281 105.0168457 C54.16576612 107.36845476 54.17079147 109.72006308 54.17617798 112.07167053 C54.18925742 118.44418571 54.19573861 124.81669036 54.20018864 131.18921685 C54.2031275 135.17918216 54.20720245 139.16914534 54.21169281 143.15910912 C54.22387879 154.23670581 54.2341783 165.31430062 54.2375679 176.39190388 C54.23789725 177.45319574 54.23789725 177.45319574 54.23823325 178.53592784 C54.23856067 179.59956549 54.23856067 179.59956549 54.2388947 180.68469077 C54.23933815 182.12125544 54.23978471 183.5578201 54.24023438 184.99438477 C54.2404558 185.70695001 54.24067723 186.41951525 54.24090537 187.15367337 C54.24484538 198.6751633 54.26227801 210.19658968 54.2855939 221.71805511 C54.30941616 233.58699583 54.32177472 245.45590483 54.32293582 257.32486981 C54.32384669 263.97257894 54.32977567 270.62021643 54.34775543 277.2679081 C54.36436728 283.53149363 54.36632864 289.79492331 54.35761642 296.05852318 C54.35685293 298.34115901 54.36109644 300.62380369 54.37107468 302.90641785 C54.49405602 332.82521931 50.85521242 361.95578628 30 385 C29.32453125 385.75667969 28.6490625 386.51335937 27.953125 387.29296875 C20.62738976 395.05985228 11.73350503 401.57188183 2 406 C1.34 406 0.68 406 0 406 C0 272.02 0 138.04 0 0 Z " fill="#B8B8AF" transform="translate(372,10)"/>
<path d="M0 0 C11.46575619 8.39982139 19.931852 19.97174815 22.1875 34.25 C23.53013063 49.74948594 20.05536555 65.35942407 10.2578125 77.67578125 C2.56163992 86.06263599 -7.38250631 91.86556063 -18.81640625 92.5234375 C-32.89470539 92.96642312 -43.229465 90.01084702 -53.8125 80.25 C-63.38626295 71.00410565 -68.10068738 57.94210764 -68.33154297 44.80126953 C-68.32525879 43.83560059 -68.31897461 42.86993164 -68.3125 41.875 C-68.30750488 40.86421387 -68.30250977 39.85342773 -68.29736328 38.81201172 C-68.11655871 31.07232932 -66.8873592 24.9374998 -62.8125 18.25 C-62.12607422 17.04730469 -62.12607422 17.04730469 -61.42578125 15.8203125 C-54.7873042 5.01687314 -46.0859484 -1.37933584 -34.4375 -6.125 C-22.28979065 -8.21943265 -10.55033943 -6.62336918 0 0 Z " fill="#A9A29A" transform="translate(209.8125,141.75)"/>
<path d="M0 0 C17.49 0 34.98 0 53 0 C53 34.98 53 69.96 53 106 C35.51 106 18.02 106 0 106 C0 71.02 0 36.04 0 0 Z " fill="#F08C00" transform="translate(373,213)"/>
<path d="M0 0 C17.49 0 34.98 0 53 0 C53 34.98 53 69.96 53 106 C35.51 106 18.02 106 0 106 C0 71.02 0 36.04 0 0 Z " fill="#54BCEC" transform="translate(373,107)"/>
<path d="M0 0 C17.49 0 34.98 0 53 0 C53 17.68145685 53 17.68145685 51.8125 25.5 C51.6117688 26.83635498 51.6117688 26.83635498 51.40698242 28.19970703 C48.52422893 46.05511276 41.17403242 62.54815884 29 76 C27.98679687 77.13501953 27.98679687 77.13501953 26.953125 78.29296875 C19.2020396 86.51081659 10.38306278 92.55011595 0 97 C0 64.99 0 32.98 0 0 Z " fill="#46C85B" transform="translate(373,319)"/>
</svg>
